<svg id="Layer_3" enable-background="new 0 0 64 64" height="512" viewBox="0 0 64 64" width="512" xmlns="http://www.w3.org/2000/svg"><g><path d="m32 23c-1.072 0-2.053-.652-2.862-1.85-.081.272-.138.553-.138.85 0 1.654 1.346 3 3 3s3-1.346 3-3c0-.3-.058-.584-.14-.858-.762 1.145-1.716 1.858-2.86 1.858z"/><path d="m36.816 15c-.175 1.411-.477 2.759-.893 3.938.665.849 1.077 1.903 1.077 3.062 0 2.757-2.243 5-5 5s-5-2.243-5-5 2.243-5 5-5c.826 0 1.594.221 2.281.577.218-.753.401-1.614.528-2.577h-12.809v46h20v-46zm3.184 44h-16v-2h16zm0-3h-16v-1h16zm0-2h-16v-1h16zm0-2h-16v-1h16zm0-2h-16v-3h16zm0-4h-16v-2h16zm0-3h-16v-1h16zm0-2h-16v-2h16zm0-3h-16v-2h16z"/><path d="m30.445 19.447c.499.961 1.073 1.553 1.555 1.553s1.05-.552 1.561-1.549c-.456-.281-.987-.451-1.561-.451-.571 0-1.1.169-1.555.447z"/><path d="m29.04 13c-.014-.334-.04-.662-.04-1 0-5.494 1.777-9 3-9s3 3.506 3 9c0 .346-.018.67-.032 1h2.002c.013-.334.03-.668.03-1 0-5.333-1.752-11-5-11s-5 5.667-5 11c0 .338.027.666.04 1z"/></g></svg>